<svg width="161" height="48" viewBox="0 0 161 48" fill="none" xmlns="http://www.w3.org/2000/svg">
<path opacity="0.8" d="M22.2499 2C10.0996 2 0.249939 11.8497 0.249939 24C0.249939 36.1503 10.0996 46 22.2499 46C33.151 46 42.2001 38.0716 43.9458 27.6667H43.7879C42.1597 33.9925 36.4173 38.6667 29.5833 38.6667C21.4831 38.6667 14.9166 32.1002 14.9166 24C14.9166 15.8998 21.4831 9.33333 29.5833 9.33333C36.4173 9.33333 42.1597 14.0075 43.7879 20.3333H43.9458C42.2001 9.92838 33.151 2 22.2499 2Z" fill="#F4EBFF"/>
<path d="M0.249939 24C0.249939 11.8497 10.0997 2 22.2499 2C33.1509 2 42.2001 9.92838 43.9458 20.3333H29.1212C27.493 14.0075 21.7507 9.33333 14.9166 9.33333C6.81643 9.33333 0.249939 15.8998 0.249939 24Z" fill="#F4EBFF"/>
<path d="M0.249939 24C0.249939 36.1503 10.0997 46 22.2499 46C33.1509 46 42.2001 38.0716 43.9458 27.6667H29.1212C27.493 33.9925 21.7507 38.6667 14.9166 38.6667C6.81643 38.6667 0.249939 32.1002 0.249939 24Z" fill="#F4EBFF"/>
<path d="M75.6888 20.5071C75.0624 15.9829 71.5823 13.3579 67.0681 13.3579C61.7485 13.3579 57.7414 17.2358 57.7414 23.8181C57.7414 30.3906 61.6988 34.2784 67.0681 34.2784C71.9104 34.2784 75.1221 31.1463 75.6888 27.2585L71.9701 27.2386C71.5028 29.625 69.5539 30.9673 67.1178 30.9673C63.8167 30.9673 61.4502 28.4914 61.4502 23.8181C61.4502 19.2244 63.7968 16.669 67.1278 16.669C69.6036 16.669 71.5425 18.071 71.9701 20.5071H75.6888Z" fill="#F4EBFF"/>
<path d="M83.3028 34.3082C85.6991 34.3082 87.131 33.1846 87.7872 31.9019H87.9065V34H91.3668V23.7784C91.3668 19.7414 88.0756 18.5284 85.1622 18.5284C81.9506 18.5284 79.4847 19.9602 78.6892 22.7443L82.05 23.2215C82.4079 22.1775 83.4222 21.2826 85.1821 21.2826C86.8526 21.2826 87.7673 22.1377 87.7673 23.6392V23.6988C87.7673 24.7329 86.6835 24.7826 83.9889 25.071C81.0258 25.3892 78.192 26.2741 78.192 29.7144C78.192 32.7173 80.3895 34.3082 83.3028 34.3082ZM84.2375 31.6633C82.7361 31.6633 81.6622 30.9772 81.6622 29.6548C81.6622 28.2727 82.8653 27.696 84.4761 27.4673C85.4207 27.338 87.3099 27.0994 87.7773 26.7215V28.5213C87.7773 30.2215 86.4051 31.6633 84.2375 31.6633Z" fill="#F4EBFF"/>
<path d="M102.612 18.7272H99.5997V15.0681H96.0003V18.7272H93.8327V21.5113H96.0003V30.0028C95.9804 32.8764 98.0685 34.2883 100.773 34.2088C101.797 34.1789 102.503 33.9801 102.891 33.8508L102.284 31.0369C102.086 31.0866 101.678 31.1761 101.23 31.1761C100.326 31.1761 99.5997 30.8579 99.5997 29.4062V21.5113H102.612V18.7272Z" fill="#F4EBFF"/>
<path d="M110.018 34.3082C112.414 34.3082 113.846 33.1846 114.502 31.9019H114.621V34H118.082V23.7784C118.082 19.7414 114.79 18.5284 111.877 18.5284C108.665 18.5284 106.199 19.9602 105.404 22.7443L108.765 23.2215C109.123 22.1775 110.137 21.2826 111.897 21.2826C113.567 21.2826 114.482 22.1377 114.482 23.6392V23.6988C114.482 24.7329 113.398 24.7826 110.704 25.071C107.741 25.3892 104.907 26.2741 104.907 29.7144C104.907 32.7173 107.104 34.3082 110.018 34.3082ZM110.952 31.6633C109.451 31.6633 108.377 30.9772 108.377 29.6548C108.377 28.2727 109.58 27.696 111.191 27.4673C112.136 27.338 114.025 27.0994 114.492 26.7215V28.5213C114.492 30.2215 113.12 31.6633 110.952 31.6633Z" fill="#F4EBFF"/>
<path d="M125.3 13.6363H121.701V34H125.3V13.6363Z" fill="#F4EBFF"/>
<path d="M135.664 34.2983C140.138 34.2983 142.982 31.1463 142.982 26.4233C142.982 21.6903 140.138 18.5284 135.664 18.5284C131.189 18.5284 128.345 21.6903 128.345 26.4233C128.345 31.1463 131.189 34.2983 135.664 34.2983ZM135.684 31.4147C133.208 31.4147 131.995 29.2073 131.995 26.4133C131.995 23.6193 133.208 21.3821 135.684 21.3821C138.12 21.3821 139.333 23.6193 139.333 26.4133C139.333 29.2073 138.12 31.4147 135.684 31.4147Z" fill="#F4EBFF"/>
<path d="M152.679 40.0454C156.805 40.0454 159.848 38.1562 159.848 34.2485V18.7272H156.298V21.2528H156.099C155.552 20.1491 154.409 18.5284 151.714 18.5284C148.185 18.5284 145.41 21.2926 145.41 26.3139C145.41 31.2954 148.185 33.7812 151.704 33.7812C154.32 33.7812 155.543 32.3792 156.099 31.2556H156.278V34.1491C156.278 36.3963 154.787 37.321 152.739 37.321C150.571 37.321 149.616 36.2968 149.179 35.4019L145.937 36.1875C146.594 38.3252 148.791 40.0454 152.679 40.0454ZM152.709 30.9573C150.332 30.9573 149.079 29.1079 149.079 26.294C149.079 23.5198 150.312 21.4815 152.709 21.4815C155.025 21.4815 156.298 23.4005 156.298 26.294C156.298 29.2073 155.006 30.9573 152.709 30.9573Z" fill="#F4EBFF"/>
</svg>
