<svg width="163" height="44" viewBox="0 0 163 44" fill="none" xmlns="http://www.w3.org/2000/svg">
<path d="M33.8807 22C30.3263 25.9713 25.1609 28.4706 19.4118 28.4706C13.6627 28.4706 8.4973 25.9713 4.94288 22C8.4973 18.0287 13.6627 15.5294 19.4118 15.5294C25.1609 15.5294 30.3263 18.0287 33.8807 22Z" fill="white"/>
<path fill-rule="evenodd" clip-rule="evenodd" d="M0 34.9412C0 24.2204 8.69098 15.5294 19.4118 15.5294C13.6627 15.5294 8.4973 18.0287 4.94288 22C8.4973 25.9713 13.6627 28.4706 19.4118 28.4706C25.1609 28.4706 30.3263 25.9713 33.8807 22C36.9545 25.4343 38.8235 29.9695 38.8235 34.9412V42.2745C38.8235 43.2275 38.051 44 37.098 44H1.72549C0.772528 44 0 43.2275 0 42.2745V34.9412Z" fill="#9A7AE0"/>
<path fill-rule="evenodd" clip-rule="evenodd" d="M12.1306 27.0589C9.3589 25.9366 6.90535 24.1927 4.94288 22C8.4973 18.0287 13.6627 15.5294 19.4118 15.5294C25.1609 15.5294 30.3263 18.0287 33.8807 22C36.9545 18.5657 38.8235 14.0305 38.8235 9.05883V1.72549C38.8235 0.772532 38.051 3.24321e-06 37.098 3.24321e-06L1.72549 0C0.772533 -8.33103e-08 4.65843e-06 0.772529 4.57512e-06 1.72549L3.93402e-06 9.05882C2.64458e-06 17.2047 5.01755 24.1788 12.1306 27.0589Z" fill="#7F56D9"/>
<path d="M56.5781 30V14H59.4766V20.7734H66.8906V14H69.7969V30H66.8906V23.2031H59.4766V30H56.5781ZM78.0586 30.2344C76.8867 30.2344 75.8711 29.9766 75.0117 29.4609C74.1523 28.9453 73.4857 28.224 73.0117 27.2969C72.543 26.3698 72.3086 25.2865 72.3086 24.0469C72.3086 22.8073 72.543 21.7214 73.0117 20.7891C73.4857 19.8568 74.1523 19.1328 75.0117 18.6172C75.8711 18.1016 76.8867 17.8438 78.0586 17.8438C79.2305 17.8438 80.2461 18.1016 81.1055 18.6172C81.9648 19.1328 82.6289 19.8568 83.0977 20.7891C83.5716 21.7214 83.8086 22.8073 83.8086 24.0469C83.8086 25.2865 83.5716 26.3698 83.0977 27.2969C82.6289 28.224 81.9648 28.9453 81.1055 29.4609C80.2461 29.9766 79.2305 30.2344 78.0586 30.2344ZM78.0742 27.9687C78.7096 27.9687 79.2409 27.7943 79.668 27.4453C80.0951 27.0911 80.4128 26.6172 80.6211 26.0234C80.8346 25.4297 80.9414 24.7682 80.9414 24.0391C80.9414 23.3047 80.8346 22.6406 80.6211 22.0469C80.4128 21.4479 80.0951 20.9714 79.668 20.6172C79.2409 20.263 78.7096 20.0859 78.0742 20.0859C77.4232 20.0859 76.8815 20.263 76.4492 20.6172C76.0221 20.9714 75.7018 21.4479 75.4883 22.0469C75.2799 22.6406 75.1758 23.3047 75.1758 24.0391C75.1758 24.7682 75.2799 25.4297 75.4883 26.0234C75.7018 26.6172 76.0221 27.0911 76.4492 27.4453C76.8815 27.7943 77.4232 27.9687 78.0742 27.9687ZM93.8574 24.9531V18H96.6855V30H93.9434V27.8672H93.8184C93.5475 28.5391 93.1022 29.0885 92.4824 29.5156C91.8678 29.9427 91.11 30.1563 90.209 30.1563C89.4225 30.1563 88.7272 29.9818 88.123 29.6328C87.5241 29.2786 87.0553 28.7656 86.7168 28.0938C86.3783 27.4167 86.209 26.599 86.209 25.6406V18H89.0371V25.2031C89.0371 25.9635 89.2454 26.5677 89.6621 27.0156C90.0788 27.4635 90.6257 27.6875 91.3027 27.6875C91.7194 27.6875 92.123 27.5859 92.5137 27.3828C92.9043 27.1797 93.2246 26.8776 93.4746 26.4766C93.7298 26.0703 93.8574 25.5625 93.8574 24.9531ZM99.5938 30V18H102.336V20H102.461C102.68 19.3073 103.055 18.7734 103.586 18.3984C104.122 18.0182 104.734 17.8281 105.422 17.8281C105.578 17.8281 105.753 17.8359 105.945 17.8516C106.143 17.862 106.307 17.8802 106.438 17.9062V20.5078C106.318 20.4661 106.128 20.4297 105.867 20.3984C105.612 20.362 105.365 20.3437 105.125 20.3437C104.609 20.3437 104.146 20.4557 103.734 20.6797C103.328 20.8984 103.008 21.2031 102.773 21.5937C102.539 21.9844 102.422 22.4349 102.422 22.9453V30H99.5938ZM113.041 34.75C112.025 34.75 111.153 34.612 110.424 34.3359C109.695 34.0651 109.109 33.7005 108.666 33.2422C108.223 32.7839 107.916 32.276 107.744 31.7188L110.291 31.1016C110.406 31.3359 110.572 31.5677 110.791 31.7969C111.01 32.0313 111.304 32.224 111.674 32.375C112.049 32.5313 112.52 32.6094 113.088 32.6094C113.89 32.6094 114.554 32.4141 115.08 32.0234C115.606 31.638 115.869 31.0026 115.869 30.1172V27.8437H115.729C115.583 28.1354 115.369 28.4349 115.088 28.7422C114.812 29.0495 114.445 29.3073 113.986 29.5156C113.533 29.724 112.963 29.8281 112.275 29.8281C111.354 29.8281 110.518 29.612 109.768 29.1797C109.023 28.7422 108.429 28.0911 107.986 27.2266C107.549 26.3568 107.33 25.2682 107.33 23.9609C107.33 22.6432 107.549 21.5312 107.986 20.625C108.429 19.7135 109.025 19.0234 109.775 18.5547C110.525 18.0807 111.361 17.8438 112.283 17.8438C112.986 17.8438 113.564 17.9635 114.018 18.2031C114.476 18.4375 114.84 18.7214 115.111 19.0547C115.382 19.3828 115.588 19.6927 115.729 19.9844H115.885V18H118.674V30.1953C118.674 31.2214 118.429 32.0703 117.939 32.7422C117.45 33.4141 116.781 33.9167 115.932 34.25C115.083 34.5833 114.119 34.75 113.041 34.75ZM113.064 27.6094C113.663 27.6094 114.174 27.4635 114.596 27.1719C115.018 26.8802 115.338 26.4609 115.557 25.9141C115.775 25.3672 115.885 24.7109 115.885 23.9453C115.885 23.1901 115.775 22.5286 115.557 21.9609C115.343 21.3932 115.025 20.9531 114.604 20.6406C114.187 20.3229 113.674 20.1641 113.064 20.1641C112.434 20.1641 111.908 20.3281 111.486 20.6562C111.064 20.9844 110.747 21.4349 110.533 22.0078C110.32 22.5755 110.213 23.2214 110.213 23.9453C110.213 24.6797 110.32 25.3229 110.533 25.875C110.752 26.4219 111.072 26.849 111.494 27.1562C111.921 27.4583 112.445 27.6094 113.064 27.6094ZM124.4 14V30H121.572V14H124.4ZM130.762 30.2422C130.001 30.2422 129.316 30.1068 128.707 29.8359C128.103 29.5599 127.624 29.1536 127.27 28.6172C126.921 28.0807 126.746 27.4193 126.746 26.6328C126.746 25.9557 126.871 25.3958 127.121 24.9531C127.371 24.5104 127.712 24.1562 128.145 23.8906C128.577 23.625 129.064 23.4245 129.605 23.2891C130.152 23.1484 130.717 23.0469 131.301 22.9844C132.004 22.9115 132.574 22.8464 133.012 22.7891C133.449 22.7266 133.767 22.6328 133.965 22.5078C134.168 22.3776 134.27 22.1771 134.27 21.9062V21.8594C134.27 21.2708 134.095 20.8151 133.746 20.4922C133.397 20.1693 132.895 20.0078 132.238 20.0078C131.546 20.0078 130.996 20.1589 130.59 20.4609C130.189 20.763 129.918 21.1198 129.777 21.5312L127.137 21.1562C127.345 20.4271 127.689 19.8177 128.168 19.3281C128.647 18.8333 129.233 18.4635 129.926 18.2187C130.618 17.9688 131.384 17.8438 132.223 17.8438C132.801 17.8438 133.376 17.9115 133.949 18.0469C134.522 18.1823 135.046 18.4062 135.52 18.7187C135.993 19.026 136.374 19.4453 136.66 19.9766C136.952 20.5078 137.098 21.1719 137.098 21.9687V30H134.379V28.3516H134.285C134.113 28.6849 133.871 28.9974 133.559 29.2891C133.251 29.5755 132.863 29.8073 132.395 29.9844C131.931 30.1563 131.387 30.2422 130.762 30.2422ZM131.496 28.1641C132.064 28.1641 132.556 28.0521 132.973 27.8281C133.389 27.599 133.71 27.2969 133.934 26.9219C134.163 26.5469 134.277 26.138 134.277 25.6953V24.2812C134.189 24.3542 134.038 24.4219 133.824 24.4844C133.616 24.5469 133.382 24.6016 133.121 24.6484C132.861 24.6953 132.603 24.737 132.348 24.7734C132.092 24.8099 131.871 24.8411 131.684 24.8672C131.262 24.9245 130.884 25.0182 130.551 25.1484C130.217 25.2786 129.954 25.4609 129.762 25.6953C129.569 25.9245 129.473 26.2214 129.473 26.5859C129.473 27.1068 129.663 27.5 130.043 27.7656C130.423 28.0312 130.908 28.1641 131.496 28.1641ZM149.426 21.1719L146.848 21.4531C146.775 21.1927 146.647 20.9479 146.465 20.7188C146.288 20.4896 146.048 20.3047 145.746 20.1641C145.444 20.0234 145.074 19.9531 144.637 19.9531C144.048 19.9531 143.553 20.0807 143.152 20.3359C142.757 20.5911 142.561 20.9219 142.566 21.3281C142.561 21.6771 142.689 21.9609 142.949 22.1797C143.215 22.3984 143.652 22.5781 144.262 22.7188L146.309 23.1562C147.444 23.401 148.288 23.7891 148.84 24.3203C149.397 24.8516 149.678 25.5469 149.684 26.4062C149.678 27.1615 149.457 27.8281 149.02 28.4062C148.587 28.9792 147.986 29.4271 147.215 29.75C146.444 30.0729 145.559 30.2344 144.559 30.2344C143.09 30.2344 141.908 29.9271 141.012 29.3125C140.116 28.6927 139.582 27.8307 139.41 26.7266L142.168 26.4609C142.293 27.0026 142.559 27.4115 142.965 27.6875C143.371 27.9635 143.9 28.1016 144.551 28.1016C145.223 28.1016 145.762 27.9635 146.168 27.6875C146.579 27.4115 146.785 27.0703 146.785 26.6641C146.785 26.3203 146.652 26.0365 146.387 25.8125C146.126 25.5885 145.72 25.4167 145.168 25.2969L143.121 24.8672C141.97 24.6276 141.118 24.224 140.566 23.6562C140.014 23.0833 139.741 22.3594 139.746 21.4844C139.741 20.7448 139.941 20.1042 140.348 19.5625C140.759 19.0156 141.329 18.5937 142.059 18.2969C142.793 17.9948 143.639 17.8438 144.598 17.8438C146.004 17.8438 147.111 18.1432 147.918 18.7422C148.73 19.3411 149.233 20.151 149.426 21.1719ZM161.5 21.1719L158.922 21.4531C158.849 21.1927 158.721 20.9479 158.539 20.7188C158.362 20.4896 158.122 20.3047 157.82 20.1641C157.518 20.0234 157.148 19.9531 156.711 19.9531C156.122 19.9531 155.628 20.0807 155.227 20.3359C154.831 20.5911 154.635 20.9219 154.641 21.3281C154.635 21.6771 154.763 21.9609 155.023 22.1797C155.289 22.3984 155.727 22.5781 156.336 22.7188L158.383 23.1562C159.518 23.401 160.362 23.7891 160.914 24.3203C161.471 24.8516 161.753 25.5469 161.758 26.4062C161.753 27.1615 161.531 27.8281 161.094 28.4062C160.661 28.9792 160.06 29.4271 159.289 29.75C158.518 30.0729 157.633 30.2344 156.633 30.2344C155.164 30.2344 153.982 29.9271 153.086 29.3125C152.19 28.6927 151.656 27.8307 151.484 26.7266L154.242 26.4609C154.367 27.0026 154.633 27.4115 155.039 27.6875C155.445 27.9635 155.974 28.1016 156.625 28.1016C157.297 28.1016 157.836 27.9635 158.242 27.6875C158.654 27.4115 158.859 27.0703 158.859 26.6641C158.859 26.3203 158.727 26.0365 158.461 25.8125C158.201 25.5885 157.794 25.4167 157.242 25.2969L155.195 24.8672C154.044 24.6276 153.193 24.224 152.641 23.6562C152.089 23.0833 151.815 22.3594 151.82 21.4844C151.815 20.7448 152.016 20.1042 152.422 19.5625C152.833 19.0156 153.404 18.5937 154.133 18.2969C154.867 17.9948 155.714 17.8438 156.672 17.8438C158.078 17.8438 159.185 18.1432 159.992 18.7422C160.805 19.3411 161.307 20.151 161.5 21.1719Z" fill="white"/>
</svg>
